<svg width="525" height="65" viewBox="0 0 525 65" fill="none" xmlns="http://www.w3.org/2000/svg">
<g filter="url(#filter0_d)">
<path d="M34.502 9.064L26.092 6.454C25.57 8.426 24.352 11.094 23.424 12.486C20.524 17.532 15.13 25.478 4.98 31.8L11.244 36.614C17.102 32.554 22.496 26.986 26.556 21.592H43.144C42.274 25.188 39.78 30.234 36.764 34.41C33.11 31.974 29.456 29.596 26.382 27.856L21.22 33.134C24.178 34.99 28.006 37.6 31.776 40.384C26.962 45.198 20.524 49.896 10.49 52.97L17.218 58.828C26.266 55.406 32.878 50.476 37.982 45.082C40.36 46.996 42.506 48.794 44.072 50.244L49.582 43.69C47.9 42.298 45.638 40.616 43.144 38.818C47.262 33.018 50.162 26.812 51.728 22.114C52.25 20.664 53.004 19.098 53.642 17.996L47.726 14.342C46.45 14.748 44.478 14.98 42.68 14.98H30.906C31.602 13.704 33.052 11.094 34.502 9.064ZM63.096 32.438L66.75 39.746C73.884 37.658 81.25 34.526 87.224 31.394V49.954C87.224 52.506 87.05 56.16 86.818 57.552H95.982C95.576 56.102 95.46 52.506 95.46 49.954V26.522C101.086 22.81 106.654 18.286 111.062 13.936L104.798 7.962C101.028 12.544 94.416 18.344 88.442 22.056C82.004 26 73.478 29.77 63.096 32.438ZM162.45 11.5C162.45 9.76 163.9 8.368 165.64 8.368C167.38 8.368 168.772 9.76 168.772 11.5C168.772 13.24 167.38 14.632 165.64 14.632C163.9 14.632 162.45 13.24 162.45 11.5ZM158.912 11.5C158.912 15.212 161.928 18.228 165.64 18.228C169.352 18.228 172.31 15.212 172.31 11.5C172.31 7.788 169.352 4.772 165.64 4.772C161.928 4.772 158.912 7.788 158.912 11.5ZM150.908 9.238H142.324C142.556 10.224 142.846 12.776 142.846 14.284V18.924H128.114C126.258 18.924 124.228 18.692 122.488 18.46V26.174C124.112 26 126.374 25.942 128.114 25.942H142.846V26C142.846 28.726 142.846 47.112 142.788 49.258C142.73 50.766 142.15 51.346 140.642 51.346C139.25 51.346 136.698 51.114 134.204 50.65L134.9 57.842C137.858 58.19 141.222 58.364 144.354 58.364C148.472 58.364 150.386 56.276 150.386 52.912V25.942H163.958C165.524 25.942 167.786 26 169.642 26.116V18.518C168.076 18.75 165.524 18.924 163.9 18.924H150.386V14.284C150.386 12.834 150.792 10.05 150.908 9.238ZM137.278 34.178L130.724 31.104C128.346 35.976 123.706 42.356 119.82 46.068L126.084 50.36C129.274 46.938 134.61 39.34 137.278 34.178ZM162.218 30.93L155.896 34.352C158.68 37.89 162.798 44.908 165.292 49.896L172.136 46.184C169.816 41.95 165.176 34.642 162.218 30.93ZM220.682 7.498L216.1 9.354C217.55 11.442 219.174 14.516 220.334 16.836L219.928 16.604C218.652 17.01 216.68 17.3 214.882 17.3H203.282C203.34 17.184 203.398 17.126 203.456 17.01C204.094 15.734 205.602 13.124 206.994 11.094L198.468 8.31C197.946 10.282 196.728 12.95 195.858 14.342C193.016 19.33 187.912 26.87 177.762 33.018L184.258 37.89C190 34.004 195.046 28.9 198.932 23.854H215.23C214.302 28.146 210.938 35.164 206.994 39.63C201.89 45.43 195.452 50.476 183.62 54.014L190.464 60.162C201.368 55.812 208.328 50.534 213.838 43.748C219.116 37.31 222.422 29.596 223.988 24.434C224.452 22.984 225.264 21.36 225.902 20.258L220.972 17.242L225.264 15.444C224.22 13.298 222.132 9.586 220.682 7.498ZM227.526 4.888L222.944 6.744C224.568 8.948 226.424 12.312 227.642 14.748L232.224 12.776C231.18 10.746 229.034 7.034 227.526 4.888ZM246.434 10.514V17.996C248.116 17.88 250.61 17.822 252.466 17.822H274.68C276.768 17.822 279.494 17.88 281.06 17.996V10.514C279.436 10.746 276.594 10.804 274.796 10.804H252.466C250.494 10.804 248.058 10.746 246.434 10.514ZM285.932 27.334L280.77 24.144C279.958 24.492 278.392 24.724 276.536 24.724H247.826C246.028 24.724 243.534 24.55 241.098 24.376V31.916C243.534 31.684 246.434 31.626 247.826 31.626H275.84C274.796 34.874 272.998 38.47 269.866 41.66C265.458 46.184 258.498 50.012 249.798 51.81L255.54 58.364C262.964 56.276 270.388 52.332 276.246 45.836C280.596 41.022 283.09 35.396 284.83 29.77C285.062 29.132 285.526 28.088 285.932 27.334ZM343.062 16.372L337.378 12.718C335.812 13.124 333.956 13.182 332.796 13.182H306C304.086 13.182 300.78 12.892 299.04 12.718V20.896C300.548 20.78 303.332 20.664 305.942 20.664H332.97C332.216 25.594 330.012 32.206 326.184 37.02C321.486 42.878 314.932 47.924 303.448 50.65L309.77 57.552C320.094 54.246 327.808 48.504 333.086 41.544C337.9 35.106 340.452 26.116 341.786 20.432C342.076 19.214 342.54 17.532 343.062 16.372ZM354.573 38.47L357.995 45.314C363.041 43.748 369.537 41.08 374.641 38.528V53.84C374.641 55.87 374.467 58.944 374.351 60.104H382.935C382.587 58.944 382.529 55.87 382.529 53.84V33.946C387.691 30.524 392.795 26.406 395.521 23.39L389.779 17.764C386.821 21.534 380.963 26.754 375.337 30.176C370.755 32.96 362.113 36.846 354.573 38.47ZM425.507 8.774L418.257 11.732C420.867 17.88 423.651 24.086 426.319 29.016C420.751 33.134 416.691 37.948 416.691 44.328C416.691 54.304 425.449 57.494 436.991 57.494C444.531 57.494 450.679 56.914 455.609 56.044L455.725 47.692C450.563 48.968 442.733 49.838 436.759 49.838C428.697 49.838 424.695 47.634 424.695 43.458C424.695 39.398 427.943 36.092 432.757 32.902C438.035 29.48 445.343 26.116 448.939 24.318C451.085 23.216 452.941 22.23 454.681 21.186L450.679 14.458C449.171 15.734 447.489 16.72 445.285 17.996C442.559 19.562 437.513 22.056 432.757 24.84C430.437 20.374 427.711 14.806 425.507 8.774ZM495.513 15.734C494.527 17.416 493.425 19.156 492.323 20.606H479.795C481.245 19.04 482.637 17.358 483.913 15.734H495.513ZM508.447 34.41H497.253V26.812H508.447V34.41ZM480.085 26.812H490.409V34.41H480.085V26.812ZM487.335 53.086C481.071 53.086 480.085 52.506 480.085 48.794V40.558H508.447V42.878H515.523V20.606H500.385C502.183 17.996 503.923 15.096 505.257 12.486L500.617 9.412L499.283 9.818H488.031C488.669 8.89 489.191 7.962 489.771 7.034L482.289 5.584C479.157 11.616 473.473 18.518 465.643 23.796C467.267 24.898 469.471 27.276 470.631 28.9C471.501 28.262 472.313 27.624 473.125 26.928V48.852C473.125 57.378 476.373 59.524 487.393 59.524H507.113C516.625 59.524 519.119 56.914 520.337 48.04C518.365 47.634 515.349 46.59 513.609 45.546C512.855 51.926 511.927 53.086 506.591 53.086H487.335Z" fill="url(#paint0_linear)"/>
</g>
<defs>
<filter id="filter0_d" x="0.97998" y="0.771973" width="523.357" height="63.39" filterUnits="userSpaceOnUse" color-interpolation-filters="sRGB">
<feFlood flood-opacity="0" result="BackgroundImageFix"/>
<feColorMatrix in="SourceAlpha" type="matrix" values="0 0 0 0 0 0 0 0 0 0 0 0 0 0 0 0 0 0 127 0"/>
<feOffset/>
<feGaussianBlur stdDeviation="2"/>
<feColorMatrix type="matrix" values="0 0 0 0 0 0 0 0 0 0 0 0 0 0 0 0 0 0 0.25 0"/>
<feBlend mode="normal" in2="BackgroundImageFix" result="effect1_dropShadow"/>
<feBlend mode="normal" in="SourceGraphic" in2="effect1_dropShadow" result="shape"/>
</filter>
<linearGradient id="paint0_linear" x1="262" y1="-11" x2="262" y2="82" gradientUnits="userSpaceOnUse">
<stop offset="0.147573" stop-color="#EF617C"/>
<stop offset="1" stop-color="#E0243B"/>
</linearGradient>
</defs>
</svg>
