<svg width="443" height="51" viewBox="0 0 443 51" fill="none" xmlns="http://www.w3.org/2000/svg">
<g filter="url(#filter0_d)">
<path d="M4.922 46H12.404L14.086 22.974C14.318 20.248 14.144 16.536 14.144 16.536H14.26C14.26 16.536 15.594 20.596 16.522 22.974L23.192 38.924H29.688L36.358 22.974C37.286 20.596 38.62 16.594 38.62 16.594H38.736C38.736 16.594 38.562 20.248 38.794 22.974L40.476 46H47.958L44.594 4.82H36.648L28.528 25.178C27.6 27.614 26.498 31.21 26.498 31.21H26.382C26.382 31.21 25.28 27.614 24.352 25.178L16.232 4.82H8.286L4.922 46ZM54.7712 35.444C54.7712 43.506 58.6572 46.696 65.0372 46.696C70.0832 46.696 73.9112 43.506 75.3032 40.49H75.4192C75.4192 40.49 75.2452 41.418 75.2452 42.52V46H82.3212V16.42H75.0132V29.992C75.0132 35.27 72.0552 39.968 66.7192 39.968C63.0652 39.968 62.1372 37.532 62.1372 33.936V16.42H54.7712V35.444ZM87.9137 42.346C90.9877 45.304 95.3957 46.696 99.5137 46.696C106.3 46.696 110.708 42.81 110.708 37.59C110.708 27.904 96.0337 29.238 96.0337 24.54C96.0337 22.684 97.5997 21.698 100.152 21.698C102.762 21.698 105.894 22.742 107.634 24.25L110.36 19.088C107.634 16.71 103.922 15.724 100.384 15.724C94.1777 15.724 89.0737 18.798 89.0737 24.598C89.0737 34.284 103.748 33.124 103.748 37.764C103.748 39.62 102.24 40.722 99.6297 40.722C96.6717 40.722 93.4237 39.504 91.2197 37.474L87.9137 42.346ZM115.001 31.21C115.001 39.62 121.149 46.696 130.951 46.696C135.185 46.696 139.825 45.13 142.841 42.462L139.941 37.184C137.563 39.098 134.489 40.432 131.473 40.432C127.007 40.432 123.063 37.764 122.599 32.602H142.957C143.073 31.674 143.189 30.688 143.189 29.76C143.189 21.93 138.549 15.724 130.081 15.724C121.207 15.724 115.001 22.104 115.001 31.21ZM122.773 27.556C123.469 23.786 126.137 21.292 129.907 21.292C133.213 21.292 135.765 23.612 135.823 27.556H122.773ZM147.513 31.21C147.513 40.316 154.763 46.696 163.753 46.696C172.743 46.696 179.993 40.316 179.993 31.21C179.993 22.162 172.743 15.724 163.695 15.724C154.763 15.724 147.513 22.162 147.513 31.21ZM154.995 31.21C154.995 25.758 158.939 21.988 163.753 21.988C168.567 21.988 172.569 25.758 172.569 31.21C172.569 36.72 168.567 40.432 163.753 40.432C158.939 40.432 154.995 36.72 154.995 31.21ZM201.615 46H216.521C224.119 46 230.731 42.288 230.731 34.052C230.731 29.876 228.585 25.7 224.061 24.366V24.25C227.193 22.568 229.049 19.262 229.049 15.434C229.049 8.648 223.771 4.82 216.289 4.82H201.615V46ZM209.097 21.64V11.258H216.231C219.653 11.258 221.451 13.404 221.451 16.362C221.451 19.32 219.595 21.64 216.347 21.64H209.097ZM209.097 39.562V27.672H217.101C220.871 27.672 223.075 30.166 223.075 33.588C223.075 37.068 220.929 39.562 217.101 39.562H209.097ZM235.476 31.21C235.476 40.316 242.726 46.696 251.716 46.696C260.706 46.696 267.956 40.316 267.956 31.21C267.956 22.162 260.706 15.724 251.658 15.724C242.726 15.724 235.476 22.162 235.476 31.21ZM242.958 31.21C242.958 25.758 246.902 21.988 251.716 21.988C256.53 21.988 260.532 25.758 260.532 31.21C260.532 36.72 256.53 40.432 251.716 40.432C246.902 40.432 242.958 36.72 242.958 31.21ZM274.034 36.778C274.034 45.246 279.08 46.29 283.14 46.29C284.126 46.29 284.938 46.174 285.46 46.116V39.678C285.054 39.736 284.648 39.736 284.358 39.736C282.444 39.736 281.342 38.924 281.342 35.676V4.82H274.034V36.778ZM289.117 31.21C289.117 40.374 294.279 46.696 302.225 46.696C306.459 46.696 309.823 44.608 311.563 41.592H311.679C311.679 41.592 311.563 42.346 311.563 43.448V46H318.465V4.82H311.157V17.87C311.157 18.856 311.273 19.61 311.273 19.61H311.157C309.243 16.942 305.821 15.724 302.515 15.724C294.685 15.724 289.117 21.814 289.117 31.21ZM296.541 31.21C296.541 25.352 299.963 22.046 303.965 22.046C308.953 22.046 311.331 26.57 311.331 31.152C311.331 37.706 307.735 40.49 303.907 40.49C299.557 40.49 296.541 36.836 296.541 31.21ZM341.68 46H349.452L367.49 10.04V4.82H339.186V11.258H356.76C358.848 11.258 359.486 11.142 359.486 11.142V11.258C359.486 11.258 358.442 12.476 357.108 15.028L341.68 46ZM386.913 46.696C398.165 46.696 401.819 37.184 401.819 25.352C401.819 13.52 398.165 4.124 386.913 4.124C375.661 4.124 371.949 13.52 371.949 25.352C371.949 37.184 375.661 46.696 386.913 46.696ZM386.913 39.852C381.287 39.852 379.663 33.472 379.663 25.352C379.663 17.348 381.287 11.026 386.913 11.026C392.539 11.026 394.163 17.348 394.163 25.352C394.163 33.472 392.539 39.852 386.913 39.852ZM423.333 46.696C434.585 46.696 438.239 37.184 438.239 25.352C438.239 13.52 434.585 4.124 423.333 4.124C412.081 4.124 408.369 13.52 408.369 25.352C408.369 37.184 412.081 46.696 423.333 46.696ZM423.333 39.852C417.707 39.852 416.083 33.472 416.083 25.352C416.083 17.348 417.707 11.026 423.333 11.026C428.959 11.026 430.583 17.348 430.583 25.352C430.583 33.472 428.959 39.852 423.333 39.852Z" fill="url(#paint0_linear)"/>
</g>
<defs>
<filter id="filter0_d" x="0.921875" y="0.124023" width="441.317" height="50.572" filterUnits="userSpaceOnUse" color-interpolation-filters="sRGB">
<feFlood flood-opacity="0" result="BackgroundImageFix"/>
<feColorMatrix in="SourceAlpha" type="matrix" values="0 0 0 0 0 0 0 0 0 0 0 0 0 0 0 0 0 0 127 0"/>
<feOffset/>
<feGaussianBlur stdDeviation="2"/>
<feColorMatrix type="matrix" values="0 0 0 0 0 0 0 0 0 0 0 0 0 0 0 0 0 0 0.25 0"/>
<feBlend mode="normal" in2="BackgroundImageFix" result="effect1_dropShadow"/>
<feBlend mode="normal" in="SourceGraphic" in2="effect1_dropShadow" result="shape"/>
</filter>
<linearGradient id="paint0_linear" x1="360.857" y1="80.2179" x2="353.523" y2="-48.5921" gradientUnits="userSpaceOnUse">
<stop stop-color="white"/>
<stop offset="0.993041" stop-color="#F4F4F4"/>
</linearGradient>
</defs>
</svg>
