<svg width="509" height="63" viewBox="0 0 509 63" fill="none" xmlns="http://www.w3.org/2000/svg">
<g filter="url(#filter0_d)">
<path d="M4.792 46H8.794L11.056 17.464C11.23 15.26 11.172 11.664 11.172 11.664H11.288C11.288 11.664 12.564 15.434 13.492 17.464L23.062 38.402H26.774L36.402 17.464C37.33 15.376 38.548 11.78 38.548 11.78H38.664C38.664 11.78 38.606 15.26 38.78 17.464L41.042 46H45.044L41.796 5.226H37.678L26.948 29.18C26.02 31.268 24.976 34.168 24.976 34.168H24.86C24.86 34.168 23.816 31.268 22.888 29.18L12.158 5.226H8.04L4.792 46ZM53.391 35.386C53.391 42.984 56.291 46.696 63.193 46.696C69.631 46.696 73.575 41.94 74.677 39.098H74.793C74.793 39.098 74.561 40.142 74.561 41.418V46H78.447V16.826H74.503V30.804C74.503 37.126 70.385 42.984 63.715 42.984C58.089 42.984 57.393 38.924 57.393 34.342V16.826H53.391V35.386ZM85.2847 42.462C88.0687 45.362 92.2447 46.696 96.1307 46.696C101.873 46.696 105.991 43.274 105.991 38.46C105.991 28.832 90.3887 30.804 90.3887 24.134C90.3887 20.944 93.1727 19.61 96.2467 19.61C98.8567 19.61 101.873 20.596 103.555 22.278L105.411 19.32C103.033 17.058 99.6107 16.13 96.4207 16.13C91.0847 16.13 86.5027 18.914 86.5027 24.25C86.5027 33.82 102.047 32.022 102.047 38.518C102.047 41.592 99.4367 43.216 96.1887 43.216C92.9987 43.216 89.5767 41.94 87.3727 39.678L85.2847 42.462ZM111.296 31.442C111.296 40.432 117.908 46.696 126.608 46.696C130.436 46.696 134.67 45.13 137.396 42.636L135.598 39.62C133.22 41.766 129.914 43.1 126.724 43.1C120.692 43.1 115.588 38.982 115.414 31.558H137.802C137.86 30.92 137.918 30.224 137.918 29.586C137.918 22.336 133.8 16.13 125.738 16.13C117.85 16.13 111.296 21.872 111.296 31.442ZM115.588 28.426C116.516 22.568 120.75 19.378 125.622 19.378C129.972 19.378 133.684 22.336 133.916 28.426H115.588ZM143.355 31.268C143.355 40.084 150.199 46.696 158.725 46.696C167.251 46.696 174.153 40.084 174.153 31.268C174.153 22.626 167.251 16.13 158.725 16.13C150.199 16.13 143.355 22.626 143.355 31.268ZM147.415 31.268C147.415 24.656 152.461 19.668 158.725 19.668C164.989 19.668 170.093 24.656 170.093 31.268C170.093 38.112 164.989 43.1 158.725 43.1C152.461 43.1 147.415 38.112 147.415 31.268ZM197.18 46H201.182V28.832H211.448L220.612 46H225.252L216.378 29.586C215.74 28.484 215.276 27.962 215.276 27.962V27.846C219.916 26.57 223.048 22.104 223.048 16.594C223.048 11.664 220.67 8.126 217.016 6.386C215.334 5.632 213.42 5.226 209.534 5.226H197.18V46ZM201.182 25.236V8.822H209.302C212.202 8.822 213.478 9.054 214.638 9.576C217.364 10.794 218.93 13.462 218.93 16.71C218.93 21.814 215.798 25.236 210.868 25.236H201.182ZM228.882 31.442C228.882 40.432 235.494 46.696 244.194 46.696C248.022 46.696 252.256 45.13 254.982 42.636L253.184 39.62C250.806 41.766 247.5 43.1 244.31 43.1C238.278 43.1 233.174 38.982 233 31.558H255.388C255.446 30.92 255.504 30.224 255.504 29.586C255.504 22.336 251.386 16.13 243.324 16.13C235.436 16.13 228.882 21.872 228.882 31.442ZM233.174 28.426C234.102 22.568 238.336 19.378 243.208 19.378C247.558 19.378 251.27 22.336 251.502 28.426H233.174ZM265.175 52.612L263.725 55.802C266.567 57.31 269.931 58.18 273.237 58.18C280.429 58.18 287.273 54.584 287.273 45.304V16.826H283.445V20.248C283.445 20.886 283.561 21.234 283.561 21.234H283.445C281.647 17.638 277.645 16.13 273.759 16.13C265.929 16.13 261.115 22.104 261.115 30.862C261.115 39.62 266.277 45.826 274.107 45.826C278.631 45.826 281.647 43.738 283.387 40.432H283.503C283.503 40.432 283.271 41.476 283.271 42.578V45.478C283.271 51.974 278.805 54.584 273.121 54.584C270.395 54.584 267.437 53.772 265.175 52.612ZM265.117 30.804C265.117 23.844 268.481 19.668 274.165 19.668C279.327 19.668 283.387 22.336 283.387 30.862C283.387 39.446 279.327 42.288 274.687 42.288C268.945 42.288 265.117 37.822 265.117 30.804ZM296.323 35.386C296.323 42.984 299.223 46.696 306.125 46.696C312.563 46.696 316.507 41.94 317.609 39.098H317.725C317.725 39.098 317.493 40.142 317.493 41.418V46H321.379V16.826H317.435V30.804C317.435 37.126 313.317 42.984 306.647 42.984C301.021 42.984 300.325 38.924 300.325 34.342V16.826H296.323V35.386ZM330.768 39.098C330.768 45.478 335.118 46.232 337.496 46.232C338.134 46.232 338.598 46.174 338.946 46.116V42.578C338.598 42.636 338.25 42.636 338.018 42.636C336.51 42.636 334.712 42.056 334.712 38.228V5.226H330.768V39.098ZM342.49 38.17C342.49 43.796 347.42 46.696 352.35 46.696C357.048 46.696 360.702 43.68 362.21 40.142H362.326C362.326 40.142 362.152 41.128 362.152 42.578V46H365.922V27.324C365.922 20.016 362.036 16.13 355.018 16.13C351.132 16.13 347.014 17.464 344.694 19.436L346.492 22.452C348.87 20.712 351.828 19.668 354.786 19.668C358.904 19.668 361.978 21.582 361.978 27.208V28.02H360.238C354.67 28.02 342.49 28.6 342.49 38.17ZM346.492 37.822C346.492 31.326 355.772 31.152 360.296 31.152H361.978V32.486C361.978 37.59 358.672 43.39 353.046 43.39C348.696 43.39 346.492 40.548 346.492 37.822ZM375.005 46H378.949V33.646C378.949 27.846 381.675 20.48 388.229 20.48C388.809 20.48 389.505 20.538 389.679 20.596V16.71C389.215 16.594 388.635 16.536 388.113 16.536C383.589 16.536 380.225 20.132 378.775 24.54H378.659C378.659 24.54 378.891 23.496 378.891 22.22V16.826H375.005V46ZM407.076 41.128C410.44 44.608 415.254 46.696 420.01 46.696C427.724 46.696 433.408 40.896 433.408 33.936C433.408 25.12 425.81 22.162 420.706 21.93L432.828 7.894V5.226H408.99V8.822H424.302C426.448 8.822 427.608 8.648 427.608 8.648V8.764C427.608 8.764 426.564 9.75 425.462 11.026L415.254 22.974L416.24 25.352H419.082C424.36 25.352 429.29 28.31 429.29 34.052C429.29 39.272 424.882 42.81 420.01 42.81C415.776 42.81 411.832 40.548 409.57 38.054L407.076 41.128ZM454.667 46.696C465.281 46.696 468.761 37.358 468.761 25.584C468.761 13.868 465.281 4.53 454.667 4.53C444.111 4.53 440.631 13.868 440.631 25.584C440.631 37.358 444.111 46.696 454.667 46.696ZM454.667 42.926C446.953 42.926 444.807 35.386 444.807 25.584C444.807 15.898 446.953 8.358 454.667 8.358C462.439 8.358 464.585 15.898 464.585 25.584C464.585 35.386 462.439 42.926 454.667 42.926ZM490.464 46.696C501.078 46.696 504.558 37.358 504.558 25.584C504.558 13.868 501.078 4.53 490.464 4.53C479.908 4.53 476.428 13.868 476.428 25.584C476.428 37.358 479.908 46.696 490.464 46.696ZM490.464 42.926C482.75 42.926 480.604 35.386 480.604 25.584C480.604 15.898 482.75 8.358 490.464 8.358C498.236 8.358 500.382 15.898 500.382 25.584C500.382 35.386 498.236 42.926 490.464 42.926Z" fill="url(#paint0_linear)"/>
</g>
<defs>
<filter id="filter0_d" x="0.791992" y="0.530029" width="507.766" height="61.65" filterUnits="userSpaceOnUse" color-interpolation-filters="sRGB">
<feFlood flood-opacity="0" result="BackgroundImageFix"/>
<feColorMatrix in="SourceAlpha" type="matrix" values="0 0 0 0 0 0 0 0 0 0 0 0 0 0 0 0 0 0 127 0"/>
<feOffset/>
<feGaussianBlur stdDeviation="2"/>
<feColorMatrix type="matrix" values="0 0 0 0 0 0 0 0 0 0 0 0 0 0 0 0 0 0 0.25 0"/>
<feBlend mode="normal" in2="BackgroundImageFix" result="effect1_dropShadow"/>
<feBlend mode="normal" in="SourceGraphic" in2="effect1_dropShadow" result="shape"/>
</filter>
<linearGradient id="paint0_linear" x1="414.453" y1="80.2179" x2="408.082" y2="-48.6948" gradientUnits="userSpaceOnUse">
<stop stop-color="white"/>
<stop offset="0.993041" stop-color="#F4F4F4"/>
</linearGradient>
</defs>
</svg>
