<svg width="25" height="24" viewBox="0 0 25 24" fill="none" xmlns="http://www.w3.org/2000/svg">
<g clip-path="url(#clip0)">
<path d="M23.6018 0.000488281H1.39792C0.901963 0.000488281 0.5 0.402451 0.5 0.898412V23.1022C0.5 23.5983 0.901963 24.0002 1.39792 24.0002H23.6021C24.0981 24.0002 24.5 23.5982 24.5 23.1022V0.898412C24.4998 0.402451 24.0977 0.000488281 23.6018 0.000488281ZM6.87619 19.7492C6.87619 20.0799 6.60828 20.3477 6.27757 20.3477H3.88101C3.55059 20.3477 3.28239 20.0798 3.28239 19.7492V9.27424C3.28239 8.94349 3.55059 8.67563 3.88101 8.67563H6.27757C6.60828 8.67563 6.87619 8.94349 6.87619 9.27424V19.7492ZM6.87619 6.23504C6.87619 6.5658 6.60828 6.83366 6.27757 6.83366H3.88101C3.55059 6.83366 3.28239 6.56575 3.28239 6.23504V4.10697C3.28239 3.77622 3.55059 3.50836 3.88101 3.50836H6.27757C6.60828 3.50836 6.87619 3.77622 6.87619 4.10697V6.23504ZM21.7174 19.7492C21.7174 20.0799 21.4492 20.3477 21.1187 20.3477H18.7222C18.3914 20.3477 18.1236 20.0798 18.1236 19.7492V15.3263C18.1236 13.8597 18.047 12.9111 17.8931 12.4805C17.7396 12.0497 17.4903 11.7151 17.1448 11.4766C16.7995 11.2377 16.384 11.1186 15.8979 11.1186C15.2754 11.1186 14.7169 11.2892 14.2224 11.6301C13.7279 11.9713 13.3891 12.4229 13.2056 12.9857C13.0225 13.5484 12.9309 14.5888 12.9309 16.1062V19.7492C12.9309 20.0799 12.6627 20.3477 12.3323 20.3477H9.93568C9.60527 20.3477 9.33707 20.0798 9.33707 19.7492V9.27424C9.33707 8.94349 9.60522 8.67563 9.93568 8.67563H12.0764C12.4071 8.67563 12.675 8.94349 12.675 9.27424V10.0722C12.675 10.403 12.837 10.4562 13.0593 10.2117C14.1775 8.983 15.5414 8.36854 17.1515 8.36854C17.9443 8.36854 18.6689 8.5113 19.3256 8.79687C19.982 9.08238 20.4788 9.44693 20.8156 9.89022C21.1523 10.3335 21.387 10.8366 21.519 11.3993C21.651 11.962 21.7174 12.7677 21.7174 13.8166V19.7492H21.7174Z" fill="#363636"/>
</g>
<defs>
<clipPath id="clip0">
<rect x="0.5" width="24" height="24" rx="2" fill="white"/>
</clipPath>
</defs>
</svg>
